<svg width="166" height="166" viewBox="0 0 166 166" fill="none" xmlns="http://www.w3.org/2000/svg">
<path d="M90.5455 0C69.2599 0 51.1834 12.2732 42.7821 30.1818H42.2516L41.1316 34.1314C40.6343 35.4651 40.1815 36.8146 39.7905 38.1989C39.7422 38.3484 39.6746 38.4905 39.6284 38.641L12.0698 16.5941L3.02113 28.6786L23.388 45.2727H0V60.3636H38.2283C38.5414 62.7696 39.0407 65.1143 39.761 67.3638C40.1571 68.7741 40.6253 70.147 41.1316 71.505L42.2516 75.4545H42.7821C46.8279 84.0787 53.0709 91.4154 60.8942 96.6761C34.0301 108.257 15.0909 135.015 15.0909 166H30.1818C30.1818 132.8 57.3455 105.636 90.5455 105.636C123.745 105.636 150.909 132.8 150.909 166H166C166 135.013 147.064 108.241 120.197 96.6614C128.012 91.4015 134.266 84.0724 138.309 75.4545H138.839L139.06 73.8777C141.822 67.4389 143.364 60.3334 143.364 52.8182C143.364 23.3909 119.973 0 90.5455 0ZM90.5455 15.0909C103.078 15.0909 113.916 21.019 120.742 30.1818H60.3489C67.1754 21.019 78.0125 15.0909 90.5455 15.0909ZM53.5698 45.2727H127.521C127.599 45.5068 127.591 45.8052 127.654 46.0538C128.037 48.2464 128.273 50.5007 128.273 52.8182C128.273 55.1356 128.037 57.39 127.654 59.5826C127.591 59.8311 127.599 60.1296 127.521 60.3636H53.5698C53.4918 60.1296 53.4999 59.8311 53.4371 59.5826C53.0536 57.39 52.8182 55.1356 52.8182 52.8182C52.8182 50.5007 53.0536 48.2464 53.4371 46.0538C53.4999 45.8052 53.4918 45.5068 53.5698 45.2727ZM60.3489 75.4545H120.742C113.916 84.6174 103.078 90.5455 90.5455 90.5455C78.0125 90.5455 67.1754 84.6174 60.3489 75.4545Z" fill="black"/>
</svg>
