<svg width="45" height="44" viewBox="0 0 45 44" fill="none" xmlns="http://www.w3.org/2000/svg">
<g clip-path="url(#clip0_1_6)">
<path d="M22.5866 14.9033C20.6327 14.9033 18.7589 15.6633 17.3773 17.0162C15.9956 18.3691 15.2195 20.2041 15.2195 22.1174C15.2195 24.0306 15.9956 25.8656 17.3773 27.2185C18.7589 28.5714 20.6327 29.3314 22.5866 29.3314C24.5405 29.3314 26.4144 28.5714 27.796 27.2185C29.1776 25.8656 29.9538 24.0306 29.9538 22.1174C29.9538 20.2041 29.1776 18.3691 27.796 17.0162C26.4144 15.6633 24.5405 14.9033 22.5866 14.9033ZM22.5028 17.8692C23.6756 17.8692 24.8004 18.3254 25.6297 19.1375C26.459 19.9496 26.9249 21.051 26.9249 22.1995C26.9249 23.3479 26.459 24.4493 25.6297 25.2614C24.8004 26.0735 23.6756 26.5297 22.5028 26.5297C21.33 26.5297 20.2052 26.0735 19.3759 25.2614C18.5466 24.4493 18.0807 23.3479 18.0806 22.1995C18.0806 21.051 18.5466 19.9496 19.3759 19.1375C20.2052 18.3254 21.33 17.8692 22.5028 17.8692Z" fill="black"/>
<path d="M27.9613 17.4361L22.5211 17.4568L17.0809 17.4775L19.7912 8.8265L22.5015 0.175491L25.2314 8.80579L27.9613 17.4361Z" fill="black" stroke="black" stroke-width="1.09137"/>
<path d="M27.9612 26.5642L22.5211 26.5434L17.081 26.5226L19.7913 35.2181L22.5015 43.9135L25.2313 35.2389L27.9612 26.5642Z" fill="black" stroke="black" stroke-width="1.09416"/>
<path d="M27.2757 27.7181L27.2641 22.3909L27.2525 17.0637L36.0823 19.7328L44.9122 22.402L36.0939 25.06L27.2757 27.7181Z" fill="black" stroke="black" stroke-width="1.09137"/>
<path d="M17.7243 27.7181L17.7359 22.3909L17.7475 17.0637L8.9177 19.7328L0.0878471 22.402L8.90605 25.06L17.7243 27.7181Z" fill="black" stroke="black" stroke-width="1.09137"/>
<path d="M27.9612 17.4358L22.5211 17.4566L17.081 17.4774L19.7913 8.78194L22.5015 0.0864639L25.2313 8.76111L27.9612 17.4358Z" fill="black" stroke="black" stroke-width="1.09416"/>
</g>
<defs>
<clipPath id="clip0_1_6">
<rect width="45" height="44" fill="white"/>
</clipPath>
</defs>
</svg>
